<svg xmlns="http://www.w3.org/2000/svg" viewBox="0 0 64 64">
  <defs>
    <linearGradient id="bg" x1="0" y1="0" x2="1" y2="1">
      <stop offset="0%" stop-color="#fff8f3"/>
      <stop offset="100%" stop-color="#ffd9e8"/>
    </linearGradient>
  </defs>
  <rect width="64" height="64" rx="16" fill="url(#bg)"/>
  <g transform="translate(30,27)">
    <g fill="#ff8fab" stroke="#e0563f" stroke-width="0.6" stroke-linejoin="round">
      <path d="M0,0 C-6,-6 -6,-16 0,-20 C6,-16 6,-6 0,0 Z"/>
      <path d="M0,0 C-6,-6 -6,-16 0,-20 C6,-16 6,-6 0,0 Z" transform="rotate(72)"/>
      <path d="M0,0 C-6,-6 -6,-16 0,-20 C6,-16 6,-6 0,0 Z" transform="rotate(144)"/>
      <path d="M0,0 C-6,-6 -6,-16 0,-20 C6,-16 6,-6 0,0 Z" transform="rotate(216)"/>
      <path d="M0,0 C-6,-6 -6,-16 0,-20 C6,-16 6,-6 0,0 Z" transform="rotate(288)"/>
    </g>
    <circle r="3.2" fill="#d9a441"/>
  </g>
  <g transform="translate(46,45) scale(0.85)">
    <path d="M0,6 C-9,-1 -7,-11 0,-6 C7,-11 9,-1 0,6 Z" fill="#e0563f"/>
  </g>
</svg>
